<svg enable-background="new 0 0 1000 1000" viewBox="0 0 1000 1000" xmlns="http://www.w3.org/2000/svg"><path fill="#FF851B" d="m818.2 985.2.2-.1-.2-.1z"/><path fill="#FF851B" d="m791.7 10h-582.7c-43.9 0-79.5 35.6-79.5 79.5v804.2 17 44.3c-.1 1-.6 1.8-.6 2.8s.5 1.8.6 2.8v.6c-.8 1.6-.4 1.7.4 1.2 2.2 13.6 13.6 24.2 27.8 24.2 9.6 0 17.6-5 22.8-12.2.6-.4 1.2-.5 1.9-1.1l316.1-267.8 319 270 9.6 7.9c10.4 9.1 26 9 35.9-.9 4.4-4.5 6.6-10.1 7.2-15.9h.8v-55.9-36.8-784.4c.2-43.9-35.4-79.5-79.3-79.5zm26.5 794.6-.1 79.5v23.1l-295.1-249.9c-1.2-2.2-2.4-4.5-4.2-6.4-10.4-10.4-27.1-10.4-37.5 0l-298.8 253.2v-20-79.5-688.6c0-29.2 23.7-53 53-53h529.8c29.2 0 53 23.7 53 53z"/></svg>
